<svg width="300" height="272" viewBox="0 0 300 272" fill="none" xmlns="http://www.w3.org/2000/svg">
<path d="M43.2609 0.588461C42.4812 1.33444 43.5659 4.92868 45.8371 9.16718C49.159 15.3045 60.4808 31.1396 61.1248 30.4953C61.2265 30.3936 59.2604 27.5114 56.6842 24.0528C46.3794 10.1166 42.4134 2.82639 44.0405 0.859724C44.3795 0.452829 44.3795 0.351105 43.9727 0.351105C43.7015 0.351105 43.3626 0.452829 43.2609 0.588461Z" fill="white"/>
<path d="M59.837 7.8448C59.9726 8.11606 60.7861 9.23503 61.5997 10.354C63.5996 13.0327 64.5488 15.2706 65.1928 18.6614C65.803 21.7132 66.6504 34.4965 66.2775 34.8356C66.1758 34.9712 65.2945 34.3269 64.3793 33.4114C61.5997 30.6649 62.481 32.0551 65.7691 35.6493C68.752 38.8706 69.8368 39.7183 68.6165 37.8534C67.5317 36.2258 67.0572 33.7166 66.5826 26.7994C65.8369 16.8982 64.8877 13.0666 62.3115 9.84537C61.2268 8.48905 59.2608 6.92929 59.837 7.8448Z" fill="white"/>
<path d="M79.1583 32.7333C78.7515 33.1741 78.2092 34.1913 77.9719 34.9712C77.599 36.2258 76.955 41.2781 76.9211 43.2108C76.9211 43.6855 76.7516 43.7873 76.0736 43.6177C75.1923 43.3804 75.2262 43.4143 76.4126 45.1436C77.0567 46.093 77.599 47.0424 77.599 47.2798C77.599 47.4833 78.2092 48.9413 78.9549 50.535C79.7346 52.1964 80.3108 53.9258 80.3108 54.6378C80.3108 55.2821 79.9379 58.8085 79.4634 62.4367C78.0058 73.5924 77.6668 80.374 78.6159 80.374C78.7854 80.374 79.2261 79.4246 79.599 78.2378C80.4125 75.8642 81.7006 73.5585 81.904 74.1688C82.1413 74.8131 80.3108 81.12 79.3956 82.8154C78.5143 84.409 76.5143 86.1383 75.4974 86.1383C75.1584 86.1383 74.7516 85.3245 74.2432 83.4935C73.0907 79.4585 71.9043 76.4746 70.7856 74.9826C69.1586 72.7108 69.0569 73.4229 70.6501 76.3728C72.1076 79.1533 73.6669 83.5952 74.0737 86.0705L74.2771 87.3251L72.1076 87.732C69.5653 88.2406 66.2773 89.1901 66.4807 89.3935C66.5485 89.4613 67.1247 89.3596 67.7349 89.1901C68.3111 89.0205 69.8704 88.7832 71.1246 88.6475L73.4296 88.4441L74.4466 90.2412C75.0228 91.2584 76.277 92.9877 77.2262 94.0728C79.0905 96.2768 81.3277 100.244 81.3277 101.363C81.3277 102.109 79.2939 106.483 78.921 106.483C78.8193 106.483 78.5481 106.076 78.3109 105.568C77.9719 104.822 77.8363 104.754 77.5651 105.161C77.3956 105.398 77.26 105.941 77.26 106.28C77.26 106.89 77.1923 106.89 76.4126 106.144C75.4974 105.296 75.3279 104.483 75.938 103.872C76.1753 103.635 76.0058 103.296 75.2601 102.787C74.6838 102.38 73.5991 100.956 72.8534 99.6676C71.6331 97.5992 70.0399 95.9716 69.6331 96.3785C69.5653 96.4464 70.006 97.2602 70.6501 98.1757C71.2602 99.1251 71.8704 100.21 72.0059 100.617C72.1754 101.261 72.0737 101.397 71.4297 101.397C70.7517 101.431 70.7856 101.465 71.7348 101.872C72.3449 102.177 73.3279 103.16 74.1754 104.381C74.9211 105.5 76.0736 106.72 76.7516 107.093C77.3956 107.5 77.938 108.009 77.938 108.212C77.938 108.416 77.0228 111.366 75.938 114.757C71.8704 127.201 70.9551 136.356 72.8534 145.749C75.8364 160.634 85.3276 172.366 100.141 179.555C110.649 184.641 120.276 186.269 138.953 186.065C146.038 185.997 147.428 185.93 148.309 185.421C149.767 184.607 155.563 183.793 160.783 183.624C170.647 183.319 176.681 180.403 187.257 170.908C189.427 168.942 191.596 167.144 192.071 166.907C192.715 166.568 193.698 166.5 195.867 166.67C198.545 166.873 198.85 166.839 199.731 166.161C201.121 165.076 201.833 163.415 203.358 157.65C205.189 150.801 205.291 150.597 208.274 149.818C216.239 147.647 217.256 147.173 217.256 145.511C217.256 144.189 215.155 141.103 211.901 137.611C210.375 135.949 209.121 134.491 209.121 134.355C209.121 134.186 209.494 132.796 209.968 131.236C210.443 129.676 210.816 128.354 210.816 128.286C210.816 127.879 209.697 128.32 209.121 128.93C208.748 129.337 208.375 129.574 208.274 129.507C208.172 129.405 208.409 129.032 208.748 128.659C209.087 128.286 209.562 127.608 209.799 127.167C210.172 126.455 210.138 126.285 209.324 125.573C208.409 124.793 208.409 124.793 206.816 125.404C203.223 126.794 197.63 131.338 187.528 141.137C173.8 154.463 167.834 159.617 164.173 161.278C162.919 161.889 160.919 162.262 156.716 162.77C147.19 163.889 142.784 164.398 136.581 165.008L130.648 165.585L126.411 164.466C116.954 161.99 116.92 161.99 116.92 163.754C116.92 164.601 117.259 165.042 118.683 166.195L120.445 167.585L119.089 167.348C114.852 166.636 98.9544 160.566 98.9544 159.685C98.9544 159.515 100.175 159.854 101.7 160.397C105.598 161.855 109.496 161.719 106.175 160.261C103.7 159.176 103.192 158.837 102.853 158.091C102.48 157.243 101.666 157.074 101.666 157.854C101.666 158.667 96.7172 154.293 94.5477 151.581C92.1749 148.597 90.48 145.443 89.0902 141.408C88.1072 138.526 87.9716 137.78 87.9716 134.288C87.9716 130.592 88.0394 130.219 89.1919 127.337C89.8699 125.641 90.7512 122.962 91.158 121.403C93.3274 112.756 95.4969 107.738 98.107 105.262C99.7001 103.804 100.039 103.262 100.514 101.397C100.853 100.007 100.988 98.6165 100.853 97.4975C100.615 95.3274 101.497 93.3268 104.175 90.1056C105.7 88.2745 106.242 87.8337 106.785 88.0033C107.361 88.2067 107.429 88.105 107.225 87.359C107.056 86.6131 107.361 86.1383 109.496 83.9343C110.852 82.5441 112.107 81.3912 112.276 81.3912C113.666 81.3912 122.344 93.7337 122.344 95.7004C122.344 96.209 123.293 96.8194 123.598 96.5142C124.106 96.0056 120.649 90.3768 116.276 84.6803C113.734 81.3912 113.056 80.0349 113.835 80.0349C114.005 80.0349 115.7 79.1194 117.564 77.9665C119.428 76.8476 124.513 74.3045 128.852 72.3717C133.191 70.4389 137.801 68.1332 139.123 67.2516C143.326 64.4711 147.936 59.5884 152.309 53.3493C153.461 51.6878 154.75 50.2637 155.495 49.8229C156.173 49.416 157.292 48.5005 157.936 47.7884L159.122 46.4999L162.682 47.5172C167.088 48.8057 171.359 49.0091 173.156 48.0258C173.834 47.6867 174.173 47.3137 173.969 47.1103C173.461 46.6016 169.054 45.1775 163.597 43.7195C157.766 42.1936 152.512 41.5832 152.512 42.4649C152.512 42.7361 152.817 43.2447 153.19 43.5838C153.563 43.9229 153.868 44.3298 153.868 44.4654C153.868 44.6011 152.987 44.9062 151.936 45.1436C144.716 46.6355 130.343 53.5867 119.293 60.9108C114.513 64.0642 110.547 67.0481 107.259 69.9981L105.022 71.9987L103.937 71.2188L102.853 70.4389L103.802 71.4562L104.751 72.4734L102.48 74.5757C101.226 75.6947 100.107 76.6441 99.9374 76.6441C99.8018 76.6441 99.3951 76.1355 99.0222 75.5251C98.1747 74.2027 96.2426 72.3039 96.2426 72.8464C96.2426 73.0499 96.4121 73.3211 96.6155 73.4568C97.2256 73.8297 98.9544 76.7458 98.9544 77.3901C98.9544 77.6953 97.8019 79.3228 96.3782 80.9504C91.4292 86.647 89.6326 88.9188 86.9208 92.8521C85.4293 95.0222 84.0395 96.8194 83.8361 96.8872C83.6328 96.955 83.2938 96.3446 83.0565 95.5648C82.4802 93.6659 80.8532 90.4446 80.1752 89.9021C79.5312 89.3596 79.4634 88.6136 80.0735 88.4102C80.2769 88.3424 79.7685 88.0711 78.8871 87.8337C77.9719 87.5964 77.26 87.2234 77.26 87.0199C77.26 86.7826 77.8024 86.0705 78.4804 85.4263C80.1413 83.8326 80.8193 82.3746 81.4633 79.0516C82.1074 75.593 83.0565 74.0671 85.4632 72.4056C87.4632 71.0832 87.4632 71.0154 85.3954 71.7274C83.6667 72.3378 83.7006 72.3378 83.7006 71.7953C83.7006 71.2188 85.2598 69.7608 86.7513 68.9809C87.7682 68.4384 88.6835 68.3367 93.124 68.3367C97.9036 68.3706 98.2086 68.3367 97.0222 67.8959C96.1409 67.5907 94.5816 67.489 92.1749 67.5568C87.4293 67.7263 85.3276 68.6418 82.1752 71.9309C80.921 73.2194 79.8363 74.2705 79.7685 74.2705C79.4634 74.2705 79.6668 66.9803 80.1074 63.047C80.7176 57.5878 81.0905 56.3332 82.3786 55.1125C82.9548 54.5361 83.87 53.2137 84.4124 52.1286C85.2259 50.5689 85.7344 49.9924 86.853 49.4838L88.2767 48.8057L86.7513 49.0091C84.9209 49.2465 84.548 49.5516 83.4972 51.5861C82.5141 53.5528 81.8023 54.1292 82.1413 52.7051C82.5819 50.874 84.3446 47.4832 85.87 45.4827C88.6157 41.9223 90.7173 40.6677 97.6663 38.362C100.039 37.5482 102.073 36.7683 102.175 36.5988C102.446 36.1919 102.276 36.1919 99.8357 36.8361C90.8868 39.108 85.7344 42.8379 82.548 49.3482L80.921 52.7051L80.1074 51.7896C79.2261 50.7723 78.277 47.924 78.277 46.3643C78.277 44.8384 79.1583 41.8206 80.4803 38.8367C81.8362 35.6833 82.0735 33.3775 81.0566 32.462C80.243 31.716 80.0735 31.716 79.1583 32.7333ZM77.1584 88.6814C78.2431 88.9866 80.4803 91.6653 81.5311 93.8694C82.4802 95.8699 83.0565 99.7015 82.4125 99.7015C82.2091 99.7015 81.226 98.2774 80.1752 96.5481C79.1583 94.8527 77.6329 92.7504 76.8194 91.9366C74.8194 90.0038 74.2432 87.8676 75.8364 88.3084C76.1753 88.3763 76.7516 88.5458 77.1584 88.6814ZM99.6662 98.9895C98.751 102.109 94.0732 108.484 93.2935 107.704C92.9884 107.433 95.2935 103.126 97.4968 99.7693C98.8188 97.7688 99.4967 97.0567 99.734 97.2941C99.9713 97.5314 99.9713 98.04 99.6662 98.9895ZM94.2087 109.704C94.2087 109.806 93.463 111.841 92.5478 114.214C90.9885 118.215 90.3444 120.25 88.9547 125.2C88.6835 126.285 88.3445 127.167 88.2089 127.167C88.1072 127.167 88.1072 125.37 88.2089 123.166C88.3784 119.572 88.3445 119.3 87.9038 120.216L87.4293 121.233L87.6327 119.877C88.1072 117.029 89.1919 114.112 90.1411 113.231C90.6495 112.756 91.3275 111.874 91.6325 111.298C91.9376 110.722 92.4461 110.077 92.7512 109.908C93.3952 109.535 94.2087 109.433 94.2087 109.704Z" fill="white"/>
<path d="M114.208 32.8011C113.191 33.0723 112.208 33.4453 112.039 33.6149C111.564 34.0557 112.005 33.9879 114.208 33.4114C115.225 33.1402 116.208 32.9028 116.378 32.9028C116.852 32.9028 116.242 34.6321 114.479 38.2603C112.649 41.9223 111.632 43.0752 110.175 43.0752C109.7 43.0752 109.056 43.2447 108.785 43.4143C108.412 43.6516 108.717 43.7534 109.869 43.7534C111.056 43.7534 111.7 43.5499 112.412 42.9396C113.496 42.024 116.581 36.6666 117.632 33.954L118.276 32.2246L117.157 32.2586C116.581 32.2586 115.225 32.4959 114.208 32.8011Z" fill="white"/>
<path d="M102.277 43.889C101.565 44.1602 100.039 44.974 98.8868 45.72C97.7004 46.4999 95.9039 47.4832 94.8869 47.9579C93.7683 48.5005 93.2938 48.8395 93.7344 48.8395C95.0225 48.8395 96.7174 48.0936 99.5309 46.2286C101.022 45.2114 102.853 44.1602 103.599 43.9229C104.31 43.6516 104.582 43.4482 104.209 43.4482C103.836 43.4482 102.955 43.6516 102.277 43.889Z" fill="white"/>
<path d="M47.7698 68.0993C46.1088 68.2688 45.8716 68.574 45.3631 71.151C43.8377 79.0515 46.2444 91.8009 50.007 95.9716C51.7697 97.9383 52.99 98.5486 51.6002 96.7854C48.041 92.2757 46.2783 85.5619 46.2444 76.4745C46.2444 71.5918 46.3461 70.5406 46.8546 69.5912L47.4647 68.5062H51.2274C53.2951 68.5062 54.9222 68.4383 54.8544 68.3705C54.651 68.201 49.0918 67.9636 47.7698 68.0993Z" fill="white"/>
<path d="M55.8368 68.7435C56.2435 68.8113 56.8537 68.8113 57.1926 68.7435C57.4977 68.6418 57.1588 68.5739 56.413 68.6078C55.6673 68.6078 55.3961 68.6757 55.8368 68.7435Z" fill="white"/>
<path d="M88.887 70.778C89.1921 70.8458 89.7345 70.8458 90.0734 70.778C90.3785 70.6762 90.1073 70.6084 89.4633 70.6084C88.8192 70.6084 88.548 70.6762 88.887 70.778Z" fill="white"/>
<path d="M63.8031 90.4446C61.9727 91.3601 61.7354 91.767 62.3794 92.9877C62.7523 93.6998 64.6506 94.6153 65.6336 94.5814C65.9726 94.5814 65.5319 94.344 64.6506 94.0728C63.5319 93.7337 63.0235 93.3946 63.0235 92.9877C63.0235 92.14 63.9387 90.9193 65.1929 90.1734C66.7183 89.2578 65.8709 89.3935 63.8031 90.4446Z" fill="white"/>
<path d="M54.8881 99.3624C55.1593 99.532 55.6339 99.7015 55.905 99.7015C56.3457 99.7015 56.3457 99.6676 55.905 99.3624C55.6339 99.1929 55.1593 99.0233 54.8881 99.0233C54.4475 99.0233 54.4475 99.0573 54.8881 99.3624Z" fill="white"/>
<path d="M58.2099 100.278C58.4471 100.38 58.7522 100.346 58.8539 100.244C58.9895 100.142 58.7861 100.041 58.4132 100.075C58.0404 100.075 57.9387 100.176 58.2099 100.278Z" fill="white"/>
<path d="M59.9043 100.617C60.1077 100.685 60.5145 100.685 60.7518 100.617C60.9552 100.515 60.7857 100.447 60.3111 100.447C59.8365 100.447 59.6671 100.515 59.9043 100.617Z" fill="white"/>
<path d="M6.75356 220.38C3.94008 220.956 1.73675 222.991 0.753722 225.907C0.245261 227.501 0.143569 229.637 0.0418763 244.658C-0.0937133 263.613 0.00797897 265.172 1.77064 267.817C4.14346 271.276 8.58402 272.598 12.0755 270.801C13.0246 270.326 14.2788 269.377 14.855 268.665C16.5499 266.597 16.9228 264.969 16.9228 259.51V254.627L14.3127 254.729L11.6687 254.831L11.6348 259.069C11.6009 264.087 11.2619 265.071 9.39756 265.783C8.24505 266.224 8.04166 266.224 7.26202 265.715C6.78746 265.41 6.2112 264.732 6.00782 264.223C5.73664 263.579 5.66885 257.814 5.70274 245.506C5.77054 228.925 5.80443 227.636 6.38069 226.856C7.66879 225.059 9.80433 225.161 11.0585 227.094C11.6009 227.941 11.6687 228.959 11.6687 238.216V248.388L14.2449 248.49L16.8211 248.591L17.0584 247.506C17.3634 245.845 17.2957 231.061 16.9228 228.314C16.4143 224.313 15.2618 222.618 11.9399 220.956C10.1772 220.075 8.99079 219.939 6.75356 220.38Z" fill="white"/>
<path d="M40.7871 220.855C38.3465 222.041 36.7195 223.601 36.0076 225.432C35.4314 226.924 35.3975 228.586 35.3975 249.236V271.445H38.1093H40.821L40.9227 262.867L40.9905 254.322H43.8718H46.7531V262.426C46.7531 266.902 46.8548 270.767 46.9565 271.072C47.126 271.513 47.7022 271.615 49.8717 271.615H52.5495L52.414 249.473C52.3462 233.57 52.2106 227.026 51.9055 226.178C50.6513 222.448 48.3802 220.617 44.5498 220.244C42.821 220.075 42.2447 220.177 40.7871 220.855ZM45.7701 226.382C46.5836 227.263 46.5836 227.263 46.7531 236.791C46.8548 242.047 46.8548 246.93 46.787 247.608L46.6853 248.897H43.8379H40.9905V238.555C40.9905 230.01 41.0922 228.009 41.499 227.196C42.482 225.297 44.4142 224.924 45.7701 226.382Z" fill="white"/>
<path d="M70.8193 245.811V271.615H73.5311H76.2429V267.783C76.2429 265.715 76.3446 261.816 76.4802 259.137C76.6497 254.831 76.7514 254.322 77.2937 254.322C78.0395 254.322 77.9378 254.085 80.3445 263.647L82.2767 271.445L85.0562 271.547C87.8358 271.649 87.8358 271.649 87.6324 270.869C87.5308 270.428 86.5138 266.291 85.3613 261.646C83.3614 253.61 83.2936 253.203 83.9037 252.864C85.1579 252.186 86.6833 250.253 87.2257 248.693C87.9714 246.455 88.0392 228.518 87.2935 226.043C86.5816 223.703 85.2596 222.143 83.0563 221.16C81.3275 220.346 80.6496 220.278 76.0056 220.143L70.8193 220.007V245.811ZM80.6835 226.009C81.2258 226.314 81.836 226.924 82.0055 227.399C82.4461 228.552 82.4461 245.879 82.0055 247.032C81.5648 248.151 79.7005 248.964 77.8361 248.829L76.4124 248.727L76.3107 240.928C76.2429 236.622 76.3107 231.4 76.4124 229.298L76.6497 225.5H78.1412C78.9886 225.5 80.1072 225.737 80.6835 226.009Z" fill="white"/>
<path d="M106.242 220.448C106.141 220.719 106.107 232.282 106.141 246.184L106.242 271.445L108.852 271.547L111.429 271.649L111.564 263.341C111.666 254.661 111.869 253.542 113.022 254.695C113.327 255 114.479 258.764 115.564 263.104C116.683 267.41 117.666 271.106 117.767 271.276C117.971 271.615 123.022 271.751 123.022 271.445C123.022 271.344 122.106 267.478 120.988 262.833C119.869 258.187 118.954 254.118 118.954 253.813C118.954 253.508 119.7 252.559 120.581 251.677C121.598 250.66 122.344 249.575 122.615 248.659C122.886 247.71 123.055 244.116 123.089 237.639C123.157 229.332 123.055 227.772 122.547 226.009C121.767 223.398 120.106 221.702 117.598 220.956C114.954 220.177 106.514 219.804 106.242 220.448ZM115.903 226.009C116.445 226.28 117.09 226.856 117.327 227.297C117.835 228.281 117.767 246.252 117.225 247.269C116.445 248.727 112.073 249.575 111.768 248.286C111.7 247.981 111.7 242.725 111.768 236.588L111.903 225.5H113.429C114.242 225.5 115.361 225.737 115.903 226.009Z" fill="white"/>
<path d="M147.903 220.38C144.784 221.194 142.276 223.805 141.767 226.823C141.632 227.67 141.496 238.08 141.496 249.914V271.445H144.208H146.92L147.021 262.867L147.089 254.322H149.97H152.852L152.92 262.867L153.021 271.445H155.733H158.445V249.236C158.445 231.332 158.343 226.755 157.97 225.704C157.394 224.042 155.496 221.906 153.835 221.058C152.377 220.346 149.428 219.973 147.903 220.38ZM151.835 226.348C152.275 226.823 152.716 227.874 152.886 228.789C153.191 230.722 153.258 245.811 152.987 247.608L152.75 248.897H149.937H147.089V238.555C147.089 230.01 147.191 228.009 147.598 227.196C148.547 225.331 150.513 224.924 151.835 226.348Z" fill="white"/>
<path d="M182.579 220.516C179.596 221.465 177.664 224.212 176.918 228.552C176.681 230.01 176.579 237.537 176.647 251.101L176.749 271.445L179.562 271.547L182.376 271.649L182.308 249.744C182.24 228.518 182.274 227.772 182.918 226.924C184.41 224.89 186.986 225.229 187.935 227.602C188.409 228.789 188.443 231.129 188.24 249.371C188.104 260.595 188.104 270.191 188.24 270.699C188.477 271.649 188.477 271.649 191.087 271.547L193.697 271.445L193.765 249.812C193.833 226.382 193.799 226.789 195.697 225.873C196.952 225.297 198.104 225.67 199.087 226.958C199.799 227.908 199.799 228.043 199.663 246.964C199.596 257.441 199.663 267.275 199.799 268.801L200.036 271.615H202.545H205.019L205.223 270.496C205.324 269.92 205.392 259.781 205.324 248.049C205.223 227.196 205.223 226.653 204.511 225.161C203.562 223.127 201.087 220.889 199.257 220.414C197.46 219.939 195.358 220.177 193.291 221.092C191.325 221.974 190.918 221.94 188.715 220.923C186.749 220.007 184.715 219.871 182.579 220.516Z" fill="white"/>
<path d="M223.697 245.845V271.615H226.409H229.121L229.053 245.913L228.951 220.244L226.341 220.143L223.697 220.041V245.845Z" fill="white"/>
<path d="M253.764 220.448C251.764 220.923 250.544 221.669 249.459 223.16C247.696 225.636 247.595 226.755 247.595 246.184C247.595 265.885 247.629 266.122 249.696 268.563C253.527 273.039 260.51 272.327 263.323 267.207C264.476 265.172 264.713 263.341 264.476 258.628L264.272 254.627L261.696 254.729L259.12 254.831L259.222 258.052C259.459 264.63 257.798 267.376 254.578 265.681C254.035 265.41 253.493 264.935 253.323 264.596C252.984 263.85 252.713 232.689 253.018 229.637C253.391 226.246 255.018 224.822 257.391 225.873C258.984 226.619 259.12 227.602 259.12 238.385V248.388L261.73 248.49L264.306 248.591L264.543 246.32C264.95 242.658 264.408 227.297 263.832 225.466C263.221 223.601 262.137 222.482 259.493 221.126C257.459 220.041 256.171 219.871 253.764 220.448Z" fill="white"/>
<path d="M288.611 220.583C286.611 221.329 284.882 222.889 283.899 224.89L283.018 226.653V249.134V271.615H285.526C287.492 271.615 288.068 271.513 288.238 271.072C288.339 270.767 288.441 266.902 288.441 262.426V254.322H291.322H294.204V262.426C294.204 266.902 294.305 270.767 294.407 271.072C294.577 271.479 295.085 271.615 296.543 271.615C297.593 271.615 298.78 271.513 299.221 271.412L300 271.174L299.898 249.27C299.763 225.331 299.831 226.212 297.763 223.093C296.238 220.753 291.594 219.498 288.611 220.583ZM293.221 226.382L294.034 227.263L294.136 238.08L294.238 248.931L291.424 248.829L288.611 248.727L288.509 238.724C288.475 233.231 288.509 228.416 288.577 228.009C289.187 225.568 291.661 224.72 293.221 226.382Z" fill="white"/>
</svg>
