<svg width="32" height="33" viewBox="0 0 32 33" fill="none" xmlns="http://www.w3.org/2000/svg">
<rect y="0.5" width="32" height="32" rx="16" fill="#FAFAFA"/>
<path d="M16 10.5C17.1 10.5 18 11.4 18 12.5C18 13.6 17.1 14.5 16 14.5C14.9 14.5 14 13.6 14 12.5C14 11.4 14.9 10.5 16 10.5ZM16 19.5C18.7 19.5 21.8 20.79 22 21.5V22.5H10V21.51C10.2 20.79 13.3 19.5 16 19.5ZM16 8.5C13.79 8.5 12 10.29 12 12.5C12 14.71 13.79 16.5 16 16.5C18.21 16.5 20 14.71 20 12.5C20 10.29 18.21 8.5 16 8.5ZM16 17.5C13.33 17.5 8 18.84 8 21.5V24.5H24V21.5C24 18.84 18.67 17.5 16 17.5Z" fill="#3D5E54"/>
</svg>
